<?xml version="1.0" encoding="utf-8"?>
<!-- Generator: Adobe Illustrator 16.0.0, SVG Export Plug-In . SVG Version: 6.00 Build 0)  -->
<!DOCTYPE svg PUBLIC "-//W3C//DTD SVG 1.1//EN" "http://www.w3.org/Graphics/SVG/1.1/DTD/svg11.dtd">
<svg version="1.1" xmlns="http://www.w3.org/2000/svg" xmlns:xlink="http://www.w3.org/1999/xlink" x="0px" y="0px" width="792px"
	 height="612px" viewBox="0 0 792 612" enable-background="new 0 0 792 612" xml:space="preserve">
<g id="Fills">
	<polygon fill="#9EDBEA" points="250.333,165 213.079,194.678 193.333,221.5 177.667,255.5 166.667,299.602 166.667,333.834 
		182.333,395.667 200,433.885 225.033,475.237 259.372,501.334 331.829,525.667 432.667,525.667 494.334,489.334 550.334,439.149 
		573,383 584,324.98 574,284.036 553,226.75 523,186.834 492.25,157 442.625,128.689 396.817,117.147 361.251,119.667 
		315.459,127.667 279.584,141.667 	"/>
	<path fill="#C7E9F1" d="M295.484,154.62c-12.899,5.681-24.658,14.523-36.754,22.007c-10.889,6.739-19.324,16.124-28.409,24.766
		c-10.733,10.209-17.711,17.576-25.139,30.366c-8.409,14.476-10.981,31.736-13.117,48.097c-2.742,20.996-3.817,42.205-1.483,63.362
		c1.24,11.237,5.301,22.007,8.31,32.868c3.344,12.067,6.214,26.298,12.697,37.165c6.18,10.366,17.606,18.872,25.392,28.302
		c8.236,9.979,17.921,18.962,27.398,27.756c22.539,20.922,55.785,38.104,87.014,38.522c34.604,0.464,66.584,2.821,94.188-16.929
		c13.158-9.416,37.064-22.099,49.327-32.434c13.01-10.969,29.786-35.158,38.521-49.646c22.86-37.918,31.149-101.915,14.265-140.549
		c-9.187-21.019-18.749-45.909-33.546-63.708c-9.195-11.061-25.023-22.428-36.354-31.264c-17.252-13.45-25.997-21.808-47.195-27.477
		c-10.098-2.701-57.534-19.2-103.85-5.354C326.748,140.472,307.462,149.346,295.484,154.62z"/>
	<polyline fill="#9EDBEA" points="276.577,267.408 279.919,288.862 287.482,306 301.25,320.5 320.625,336.5 345.111,342.291 
		370.341,344.969 401.875,336.5 421.388,323.411 438.72,303.724 446.697,284.036 451.125,262.5 447.875,232.125 442.625,216.125 
		430.094,196.806 408.251,178.342 393.625,173.625 362.5,167.333 333.869,169.5 318.035,177.75 295.25,200 281.917,223.679 
		275.918,237.75 276.543,266.916 	"/>
	<polygon fill="#A7CF8C" points="339,205.31 322.5,212.994 313.917,225.875 312.173,238.281 317,256.146 328.25,275.156 
		340.008,288.504 350.625,294.75 363.921,302.625 376.988,305.25 383.25,304.25 393.813,298.688 402.683,289.375 409.5,275.624 
		411.625,261.563 409.176,246.438 405.563,237.563 394.132,221.5 381.625,211.5 366.938,205.31 351.438,203.484 	"/>
	<polygon fill="#76B05D" points="354.75,271.125 359.875,271.96 366.563,270.459 371.563,266.125 374.371,260.938 376.125,252.563 
		375.813,241.626 375.333,237.063 369.25,236.5 361.625,239.938 356.625,247.875 354.75,257.813 	"/>
</g>
<g id="Cell_x5F_Outlines">
	<path fill="#2AABCA" d="M364.33,533.737c-0.001,0-7.703,0-7.703,0c-3.766,0-9.164,0.523-12.392,0.162
		c-21.229-2.381-45.273-12.787-70.331-21.971c-18.448-6.758-27.101-15.827-40.586-28.334
		c-11.727-10.874-18.094-19.984-27.135-35.105c-1.527-2.554-3.1-5.084-4.672-7.616c-5.746-9.252-11.689-18.82-15.414-29.598
		c-1.475-4.271-3.111-8.63-4.694-12.842c-3.974-10.584-8.085-21.528-10.26-32.641c-2.758-14.093-7.648-37.081-7.697-37.312
		l-0.039-0.28c-3.42-49.487,21.336-94.161,29.471-108.842c0.794-1.431,1.443-2.601,1.909-3.49
		c10.21-19.476,20.32-27.657,35.621-40.039c1.97-1.595,4.029-3.261,6.19-5.032c1.981-1.625,4.061-3.361,6.217-5.158
		c11.607-9.68,24.761-20.651,36.906-26.853c20.091-10.257,45.284-14.935,67.509-19.063c3.484-0.647,6.916-1.284,10.27-1.931
		c6.398-1.234,13.374-1.86,20.73-1.86c43.735,0,98.372,21.934,129.91,52.155c11.397,10.922,35.43,36.348,44.801,54.396
		c4.921,9.479,9.653,23.389,14.23,36.841c3.146,9.246,6.119,17.98,8.952,24.69c13.741,32.542,10.826,63.397,2.549,97.297
		c-0.729,2.985-3.294,11.712-4.019,14.736c-8.939,37.351-41.896,64.415-53.823,82.54l-10.977,7.459
		c-24.842,7.094-13.738,8.303-26.631,14.828c-4.649,2.354-13.924,8.281-18.755,11.387c-7.43,4.777-13.096,9.438-21.1,12.057
		c-11.124,3.643-24.321,6.957-36.505,7.368c-2.726,0.092-11.465,1.884-14.066,2.01c-3.314,0.162-13.462-0.238-16.746,0.002
		C370.294,534.124,370.211,533.737,364.33,533.737z M171.087,327.171c0.415,1.951,1.349,24.299,4,37.85
		c2.111,10.785,6.162,21.57,10.079,32c1.592,4.238,3.238,8.621,4.73,12.941c3.577,10.351,9.398,19.726,15.029,28.791
		c1.584,2.552,3.168,5.1,4.707,7.675c8.841,14.786,15.05,23.677,26.418,34.221c12.939,11.999,30.211,18.931,48.26,25.545
		c24.752,9.071,46.946,14.621,67.851,16.966c3.077,0.345,6.331,0.513,9.946,0.513h0.002c5.733,0,11.611-0.432,17.297-0.848
		c3.309-0.244,6.729-0.495,10.092-0.66c2.622-0.128,5.322-0.22,8.068-0.311c11.901-0.403,24.209-0.816,34.789-4.281
		c7.515-2.459,14.977-7.255,22.193-11.896c4.704-3.025,9.568-6.154,14.402-8.601c12.655-6.405,24.725-14.682,36.396-22.686
		l0.147-0.102c24.373-16.714,53.506-47.489,62.18-83.73c0.727-3.032,1.461-6.041,2.191-9.035
		c8.113-33.234,15.778-64.624,2.555-95.943c-2.89-6.842-5.884-15.643-9.054-24.96c-4.529-13.309-9.213-27.071-13.993-36.281
		c-7.93-15.272-28.375-38.359-44.017-53.348c-30.861-29.573-84.328-51.038-127.128-51.038c-7.103,0-13.82,0.601-19.969,1.786
		c-3.364,0.649-6.804,1.288-10.297,1.937c-21.958,4.078-36.972,4.257-56.543,14.248c-11.743,5.996-28.063,19.839-39.508,29.383
		c-2.165,1.805-8.281,6.853-10.271,8.484c-2.167,1.778-6.729,1.563-8.705,3.163c-14.914,12.068-24.767,20.041-34.59,38.78
		c-0.478,0.911-1.142,2.109-1.953,3.574C188.408,235.717,167.806,278.923,171.087,327.171z"/>
	<path fill="#2AABCA" d="M439.937,460.271c-16.655,0-32.514-7.334-40.733-17.602c-12.182-15.215-13.296-38.303-2.71-56.142
		c5.458-9.194,13.925-18.574,35.434-17.632l1.454-0.056c3.767-0.155,5.553,0.169,6.654,0.366c0.331,0.061,0.597,0.11,0.842,0.126
		l0.395,0.029c4.112,0.285,10.996,0.764,14.759,1.85c16.281,4.701,30.387,10.021,38.104,27.554
		c5.376,12.216,4.651,24.137-2.094,34.478C482.146,448.405,462.501,460.271,439.937,460.271z M428.905,370.169
		c-18.582,0-25.244,9.745-30.498,18.6c-10.307,17.367-9.999,38.275,1.842,53.064c7.96,9.942,21.287,15.419,37.526,15.419
		c21.784,0,42.559-10.882,52.063-25.448c6.487-9.942,8.255-20.718,3.069-32.497c-7.483-17.004-21.613-20.501-37.565-25.106
		c-3.626-1.047-10.37-3.239-14.163-3.501l-0.396-0.029c-0.286-0.02-0.598-0.073-0.983-0.144c-1.049-0.188-2.761-0.492-6.366-0.347
		l-1.51,0.056C430.854,370.191,429.862,370.169,428.905,370.169z"/>
	<path fill="none" stroke="#2AABCA" stroke-width="3" stroke-miterlimit="10" d="M389.873,171.966
		c-6.442-2.134-13.502-2.771-20.242-4.001c-6.066-1.107-12.111-0.477-18.151-0.322c-7.13,0.185-12.004,0.563-18.788,2.736
		c-7.679,2.459-14.172,7.797-20.217,12.956c-7.758,6.619-14.991,13.854-20.988,22.166c-3.186,4.417-5.211,9.579-7.643,14.432
		c-2.7,5.394-6.269,11.405-7.461,17.382c-1.137,5.699,0.2,12.43-0.063,18.314c-0.278,6.227,0.284,12.563,0.832,18.767
		c1.301,14.753,7.636,31.629,18.663,41.862c12.218,11.337,22.886,22.507,39.129,24.36c7.741,0.883,20.379,4.067,28.1,4.334
		c8.193,0.279,22-2.948,29.796-5.307c20.415-6.171,44.039-26.367,50.479-45.627c3.503-10.479,8.121-22.462,8.579-33.601
		c0.284-6.923-1.701-16.095-2.897-22.911c-1.822-10.378-2.251-16.188-7.995-25.059c-2.737-4.226-14.363-25.438-35.389-35.444
		C405.615,177.004,395.858,173.948,389.873,171.966z"/>
</g>
<g id="Cell_Receptors">
	<g>
		<g>
			<path fill="#2AABCA" d="M351.386,193.946c-0.425-2.067-0.225-5.312,2.672-5.718c0.891-0.125,1.866-0.195,2.685-0.611
				c2.173-1.104,3.133-2.547,4.101-4.778c1.703-3.924,2.15-10.466,1.231-14.565c-0.164-0.73-1.208-0.829-1.563-0.204
				c-3.527,6.205,1.946,16.082-8.273,17.811c-4.645,0.786-4.361,5.578-2.373,8.708C350.383,195.402,351.576,194.866,351.386,193.946
				L351.386,193.946z"/>
		</g>
	</g>
	<g>
		<g>
			<path fill="#2AABCA" d="M366.607,167.989c-1.401,3.625-2.533,9.395-0.646,13.029c0.943,1.816,2.152,3.459,3.273,5.168
				c1.791,2.729,1.229,3.988-0.217,6.649c-0.242,0.444,0.062,0.972,0.566,0.987c3.516,0.108,4.747-3.516,3.43-6.427
				c-1.129-2.495-2.904-4.584-4.351-6.893c-2.081-3.322-0.697-8.625-0.744-12.336C367.909,167.373,366.869,167.311,366.607,167.989
				L366.607,167.989z"/>
		</g>
	</g>
	<g>
		<g>
			<path fill="#2AABCA" d="M386.646,205.604c-1.437-2.742,0.553-5.525,3.392-5.543c1.404-0.009,2.794,0.472,4.192,0.567
				c2.511,0.172,4.578-0.417,6.732-1.699c5.586-3.325,8.433-9.934,13.267-14.117c1.348-1.167-0.622-3.134-1.955-1.956
				c-6.477,5.723-9.972,16.439-20.158,15.182c-2.03-0.25-5.064-0.482-6.387,1.552c-1.36,2.091-1.871,4.818,0.2,6.567
				C386.321,206.489,386.895,206.078,386.646,205.604L386.646,205.604z"/>
		</g>
	</g>
	<g>
		<g>
			<path fill="#2AABCA" d="M419.438,186.303c-5.646,1.393-9.424,7.334-12.566,11.837c-1.389,1.99-2.039,4.109-2.326,6.485
				c-0.16,1.326,0.037,2.719,0.089,4.048c0.077,2.03-2.353,2.843-3.447,4.095c-0.291,0.333-0.162,0.792,0.248,0.94
				c4,1.448,5.945-2.925,5.812-6.209c-0.35-8.553,6.874-14.914,12.728-20.277C420.396,186.837,419.952,186.176,419.438,186.303
				L419.438,186.303z"/>
		</g>
	</g>
	<g>
		<g>
			<path fill="#2AABCA" d="M408.767,231.469c3.505-5.854,9.258,0.5,14.205-0.563c7.634-1.64,13.92-6.646,21.678-7.958
				c1.663-0.281,1.28-3.108-0.398-2.946c-8.624,0.829-16.886,9.781-25.452,7.507c-4.3-1.141-10.753-2.675-11.146,3.659
				C407.615,231.78,408.475,231.957,408.767,231.469L408.767,231.469z"/>
		</g>
	</g>
	<g>
		<g>
			<path fill="#2AABCA" d="M446.171,227.732c-3.256-2.348-9.468,2.12-12.598,3.19c-2.079,0.711-5.225,0.903-6.359,3.225
				c-0.45,0.922-0.719,1.584-0.854,2.615c-0.51,3.893-3.034,4.842-5.91,6.606c-0.611,0.375-0.625,1.578,0.221,1.692
				c4.226,0.572,7.652-3.193,8.16-7.183c0.498-3.908,5.938-4.542,8.819-5.958c2.035-1,5.79-3.747,8.133-3.266
				C446.36,228.771,446.634,228.065,446.171,227.732L446.171,227.732z"/>
		</g>
	</g>
	<g>
		<g>
			<path fill="#2AABCA" d="M412.717,282.501c0.139,4.17,4.884,6.228,8.688,5.151c3.507-0.993,6.414-3.221,9.893-4.293
				c4.414-1.361,9.731,0.013,14.287-0.276c2.034-0.129,2.024-3.334,0-3.164c-4.438,0.374-9.116-0.551-13.492,0.359
				c-4.251,0.885-14.882,9.294-17.672,1.992C414.09,281.406,412.683,281.46,412.717,282.501L412.717,282.501z"/>
		</g>
	</g>
	<g>
		<g>
			<path fill="#2AABCA" d="M417.715,265.976c5.045-1.862,7.328,4.308,9.142,7.635c0.917,1.682,2.934,2.506,4.629,3.106
				c5.225,1.85,11.373,0.605,16.765,0.512c1.796-0.031,1.8-2.811,0-2.789c-5.375,0.065-16.104,2.478-19.518-2.944
				c-2.4-3.813-6.268-9.905-11.396-6.419C416.899,265.372,417.162,266.179,417.715,265.976L417.715,265.976z"/>
		</g>
	</g>
	<g>
		<g>
			<path fill="#2AABCA" d="M397.387,306.67c-0.113-0.03-0.228-0.061-0.341-0.091c-0.548-0.146-0.951,0.261-1.012,0.771
				c-0.667,5.564,5.187,6.697,9.369,6.207c4.532-0.531,9.14-0.655,12.438,3.062c1.551,1.747,2.982,4.142,5.444,4.608
				c0.715,0.136,1.38-0.084,1.775-0.722c0.08-0.13,0.16-0.26,0.241-0.39c0.419-0.678,0.013-1.578-0.729-1.79
				c-3.636-1.042-5.068-5.514-8.768-6.874c-2.634-0.968-5.086-1.21-7.89-1.041c-0.96,0.058-1.936,0.273-2.881,0.436
				c-1.396,0.329-2.8,0.37-4.211,0.124c-1.504-0.842-2.547-2.023-3.13-3.542C397.849,307.137,397.72,306.759,397.387,306.67
				L397.387,306.67z"/>
		</g>
	</g>
	<g>
		<g>
			<path fill="#2AABCA" d="M410.159,296.915c0.002-0.001,0.99,1.176,1.069,1.273c1.642,2.005,0.918,4.175,0.709,6.312
				c-0.178,1.813,1.071,3.393,2.143,4.685c1.779,2.147,4.396,3.706,6.478,5.551c2.108,1.867,4.138,3.668,6.608,5.05
				c1.677,0.938,3.177-1.633,1.502-2.57c-2.945-1.648-5.33-3.979-7.923-6.106c-2.555-2.096-6.241-3.919-6.158-7.713
				c0.07-3.191-0.241-7.184-4.281-7.871c-0.313-0.053-0.726,0.079-0.786,0.446c-0.021,0.134-0.044,0.268-0.065,0.401
				C409.395,296.733,409.78,297.198,410.159,296.915L410.159,296.915z"/>
		</g>
	</g>
	<g>
		<g>
			<path fill="#2AABCA" d="M361.862,315.024c-0.235-0.129-0.471-0.257-0.707-0.386c-0.375-0.204-0.793-0.141-1.105,0.143
				c-3.12,2.834-1.359,6.264,1.596,8.282c4.053,2.77,6.678,4.732,7.169,10.124c0.321,3.518-1.384,6.815-0.859,10.244
				c0.11,0.72,1.212,0.982,1.665,0.439c3.179-3.815,2.625-10.839,1.209-15.298c-0.59-1.857-1.937-4.052-3.552-5.201
				c-0.714-0.508-10.395-5.664-5.548-7.341C362.159,315.883,362.306,315.267,361.862,315.024L361.862,315.024z"/>
		</g>
	</g>
	<g>
		<g>
			<path fill="#2AABCA" d="M379.25,312.684c1.694,5.1,0.146,7.469-3.391,10.596c-1.635,1.445-2.369,3.264-2.886,5.341
				c-1.083,4.354-1.096,10.45-0.477,14.839c0.171,1.213,2.091,1.383,2.598,0.339c0.059-0.122,0.119-0.244,0.178-0.366
				c0.375-0.773-0.067-1.805-1.022-1.781c-0.128,0.003-0.255,0.006-0.383,0.01c0.474,0.474,0.947,0.947,1.421,1.421
				c0.747-7.057-1.544-14.193,4.271-19.545c3.557-3.273,3.215-7.457,0.954-11.385C380.128,311.481,379,311.929,379.25,312.684
				L379.25,312.684z"/>
		</g>
	</g>
	<g>
		<g>
			<path fill="#2AABCA" d="M327.885,295.984c-4.344-2.115-6.316,5.372-3.259,7.925c5.53,4.617,0.663,11.591-1.884,16.581
				c-2.149,4.209-5.062,8.466-6.481,12.98c-0.449,1.43,1.307,2.128,2.292,1.334c2.443-1.971,3.344-5.756,4.775-8.479
				c2.097-3.988,4.127-7.98,5.79-12.172c1.091-2.751,1.953-5.673,0.944-8.53c-0.359-1.018-1.179-1.791-1.94-2.507
				c-0.353-0.28-0.719-0.542-1.098-0.787c-1.532-1.069-2.018-5.114,0.559-5.232C328.136,297.072,328.453,296.26,327.885,295.984
				L327.885,295.984z"/>
		</g>
	</g>
	<g>
		<g>
			<path fill="#2AABCA" d="M343.962,301.834c0.076,2.403-0.192,4.632-2.894,5.44c-1.453,0.436-2.548,1.081-3.813,1.931
				c-2.994,2.011-5.517,6.143-7.294,9.212c-1.906,3.29-3.524,6.819-5.275,10.197c-1.293,2.495-3.165,5.021-4.164,7.593
				c-0.256,0.658,0.395,1.425,1.062,1.395c2.658-0.121,3.768-3.285,4.806-5.352c2.297-4.569,4.509-9.243,7.021-13.695
				c1.546-2.741,4.006-6.02,6.526-7.88c1.582-1.169,3.659-1.3,5.244-2.486c1.94-1.452,0.739-4.952-0.061-6.668
				C344.854,300.951,343.944,301.241,343.962,301.834L343.962,301.834z"/>
		</g>
	</g>
	<g>
		<g>
			<path fill="#2AABCA" d="M306.029,261.501c0.146-3.626-9.09-2.646-8.171,3.064c0.668,4.15,2.658,6.715,0.385,11.01
				c-1.476,2.79-3.983,5.099-6.235,7.262c-3.915,3.76-9.008,6.847-11.254,11.983c-0.695,1.589,1.298,2.782,2.327,1.36
				c4.891-6.756,12.101-11.162,16.984-17.958c1.957-2.724,2.556-5.547,2.305-8.847c-0.124-1.631-0.868-3.086-1.442-4.584
				c-0.906-2.362,3.209-4.793,4.272-3.065C305.436,262.11,306.011,261.942,306.029,261.501L306.029,261.501z"/>
		</g>
	</g>
	<g>
		<g>
			<path fill="#2AABCA" d="M318.967,272.348c-0.754,0.404-1.254,1.086-1.827,1.712c-2.009,2.198-4.23,3.052-6.98,4.094
				c-4.404,1.668-7.578,4.52-11.142,7.533c-5.028,4.25-10.918,9.2-14.954,14.445c-0.593,0.77,0.205,2.075,1.14,1.986
				c2.306-0.22,4.117-2.833,5.598-4.395c2.898-3.056,5.817-5.889,9.012-8.658c2.502-2.169,4.979-4.495,7.686-6.407
				c1.867-1.32,4.274-1.932,6.364-2.857c3.545-1.569,3.957-3.712,5.873-6.684C320.056,272.622,319.441,272.094,318.967,272.348
				L318.967,272.348z"/>
		</g>
	</g>
	<g>
		<g>
			<path fill="#2AABCA" d="M306.301,229.273c0.733-4.162-4.66-3.901-7.372-3.319c-3.927,0.844-7.181,2.14-11.343,2.212
				c-2.722,0.047-6.059-0.924-8.475,0.525c-0.62,0.372-0.592,1.242,0,1.619c3.204,2.041,9.369,0.971,12.967,0.555
				c4.31-0.498,9.675-4.86,13.557-1.417C305.839,229.629,306.246,229.589,306.301,229.273L306.301,229.273z"/>
		</g>
	</g>
	<g>
		<g>
			<path fill="#2AABCA" d="M277.917,236.647c5.735,0.584,10.732-0.678,15.369,3.521c4.349,3.939,7.721,7.698,14.104,6.379
				c1.945-0.402,1.524-3.727-0.473-3.491c-6.87,0.812-9.768-5.734-15.81-8.343c-2.333-1.007-12.747-1.78-13.654,1.325
				C277.359,236.363,277.615,236.617,277.917,236.647L277.917,236.647z"/>
		</g>
	</g>
	<g>
		<g>
			<path fill="#2AABCA" d="M292.002,206.258c3.759,2.094,7.337,4.555,9.188,8.5c1.37,2.919,3.665,5.213,7.091,4.731
				c1.49-0.209,1.109-2.226,0-2.645c-1.98-0.748-3.05-1.154-4.131-3.074c-0.713-1.266-1.352-2.616-2.321-3.716
				c-2.092-2.375-6.332-4.9-9.579-4.713C291.781,205.368,291.553,206.008,292.002,206.258L292.002,206.258z"/>
		</g>
	</g>
	<g>
		<g>
			<path fill="#2AABCA" d="M295.762,201.322c2.169,1.993,4.976,2.917,7.91,2.924c1.354,0.003,2.699-0.104,4.054-0.055
				c2.021,0.074,1.958,0.745,2.604,2.321c0.407,0.993,1.755,1.37,2.377,0.311c1.661-2.827-1.182-5.271-3.871-5.511
				c-1.728-0.154-3.441,0.055-5.165,0.168c-2.484,0.163-4.82-0.915-7.237-1.313C295.807,200.063,295.204,200.811,295.762,201.322
				L295.762,201.322z"/>
		</g>
	</g>
	<g>
		<g>
			<path fill="#2AABCA" d="M313.363,183.348c-0.375,1.083,0.873,2.15,1.505,2.87c1.865,2.125,4.277,3.042,4.337,6.229
				c0.079,4.207-0.891,8.23,4.029,9.986c1.531,0.546,2.083-1.571,1.012-2.399c-2.355-1.819-2.506-3.301-2.393-6.071
				c0.075-1.822-0.121-3.422-0.86-5.092c-1.017-2.296-4.801-4.406-6.787-5.866C313.889,182.771,313.473,183.029,313.363,183.348
				L313.363,183.348z"/>
		</g>
	</g>
	<g>
		<g>
			<path fill="#2AABCA" d="M317.483,180.167c-0.471,3.681,2.91,5.917,5.81,7.288c3.977,1.88,7.768,2.856,10.905,6.098
				c1.202,1.242,3.135-0.339,2.337-1.803c-1.574-2.89-5.031-4.222-7.961-5.285c-4.309-1.564-7.438-2.792-10.283-6.516
				C318.02,179.592,317.54,179.726,317.483,180.167L317.483,180.167z"/>
		</g>
	</g>
</g>
<g id="Virus_Outlines">
	<g>
		<path fill="#699C52" d="M393.257,219.642c0.001,0.001,1.941,1.951,1.941,1.951c3.262,3.277,4.58,6.292,7.408,10.361
			c8.304,11.95,11.576,25.709,9.217,38.742c-2.178,12.026-8.913,22.247-19.479,29.559c-10.396,7.192-20.824,7.622-32.818,1.354
			c-6.283-3.284-15.499-9.005-20.792-14.323c-1.066-1.071-1.96-2.111-2.659-3.09c-0.062-0.012-6.437-5.882-11.24-12.671
			c-5.123-7.241-20.868-33.263-9.556-51.376c7.091-11.355,20.156-17.156,37.541-17.603
			C367.517,202.166,381.586,207.916,393.257,219.642z M339.422,286.599c5.215,5.24,14.563,9.867,20.785,13.118
			c11.64,6.083,21.519,6.702,31.585-0.263c10.348-7.16,15.936-18.082,18.065-29.85c2.314-12.778,0.106-25.36-8.049-37.096
			c-2.796-4.024-5.847-7.705-9.067-10.94c-11.479-11.532-25.332-16.588-39.756-16.218c-17.039,0.438-29.018,5.424-35.925,16.485
			c-10.994,17.605,4.583,42.198,9.62,49.316c4.772,6.745,10.089,12.371,10.143,12.427
			C337.533,284.565,338.394,285.564,339.422,286.599z"/>
	</g>
	<g>
		<path fill="#699C52" d="M365.603,237.584c0.001,0,3.387-1.337,3.387-1.338c2.005-0.456,4.188-0.403,6.49,0.153l0.294,0.071
			l0.066,0.295c2.157,9.645,2.621,29.465-11.079,35.439l-0.48,0.118c-3.113,0.492-6.654,0.875-9.694-0.741l-0.236-0.125
			l-0.021-0.267C353.593,261.454,352.878,240.478,365.603,237.584z M374.299,238.244c-2.047-0.457-3.321-1.454-5.095-1.05
			c-12.001,2.725-14.574,24.04-13.925,33.651c2.728,1.334,4.579,0.459,7.42,0.011l2.473-0.812
			C378.068,264.411,376.341,247.722,374.299,238.244z"/>
	</g>
</g>
<g id="Virus_Ligands">
	<g>
		<g>
			<path fill="#654273" d="M339.077,296.978c0.296-0.553,0.778-0.78,1.198-1.21c0.576-0.591,1.155-1.181,1.712-1.79
				c1.085-1.188,2.291-3.341,0.488-4.503c-0.527-0.34-1.446-0.275-1.855,0.239c-0.376,0.474-0.485,1.047-0.702,1.435
				c-0.333,0.595-0.783,1.144-1.193,1.686c-0.856,1.131-1.583,2.458-1.318,3.926C337.548,297.545,338.722,297.642,339.077,296.978
				L339.077,296.978z"/>
		</g>
	</g>
	<g>
		<g>
			<path fill="#654273" d="M335.342,300.829c-0.842,2.116,1.44,3.653,3.356,2.872c3.089-1.26,2.486-5.15,0.713-7.279
				c-2.351-2.823-7.05-3.263-8.624,0.666c-1.134,2.831,1.345,7.684,4.735,7.42c0.569-0.044,1.01-0.641,0.678-1.182
				c-0.847-1.378-2.287-2.235-2.859-3.82c-0.347-0.961,0.021-1.796,0.832-2.375c0.806-0.574,1.806-0.192,2.504,0.356
				c0.863,0.677,2.258,2.636,1.266,3.713c-0.396,0.431-1.452,0.509-1.519-0.227C336.366,300.338,335.573,300.248,335.342,300.829
				L335.342,300.829z"/>
		</g>
	</g>
	<g>
		<g>
			<path fill="#654273" d="M373.403,313.687c-0.005-1.456-0.056-2.901-0.003-4.362c0.059-1.627,0.278-4.035-1.12-5.202
				c-1.078-0.901-2.825-0.078-2.431,1.415c0.74,2.809-0.401,6.611,1.479,9.009C372.011,315.417,373.407,314.657,373.403,313.687
				L373.403,313.687z"/>
		</g>
	</g>
	<g>
		<g>
			<path fill="#654273" d="M369.5,315.969c-1.537,2.675,1.694,5.481,4.285,4.957c1.69-0.342,2.486-2.22,2.639-3.735
				c0.173-1.721-0.935-3.495-2.232-4.517c-2.486-1.955-6.819-1.146-7.629,2.187c-0.573,2.356,1.677,6.577,4.524,5.895
				c0.491-0.118,0.807-0.789,0.497-1.223c-0.825-1.157-2.091-1.713-2.538-3.191c-0.456-1.509,1.138-2.518,2.515-2.264
				c1.794,0.331,2.898,2.512,2.07,4.102c-0.887,1.703-3.358-0.856-3.389-2.009C370.233,315.78,369.703,315.617,369.5,315.969
				L369.5,315.969z"/>
		</g>
	</g>
	<g>
		<g>
			<path fill="#654273" d="M397.593,296.657c0.11,1.215,0.783,2.168,1.573,3.064c0.801,0.908,1.724,2.021,2.727,2.692
				c1.053,0.705,2.069-0.627,1.6-1.599c-0.449-0.928-1.438-1.636-2.174-2.34c-0.808-0.772-1.531-1.627-2.346-2.389
				C398.5,295.643,397.525,295.914,397.593,296.657L397.593,296.657z"/>
		</g>
	</g>
	<g>
		<g>
			<path fill="#654273" d="M401.82,301.7c-3.094,1.169-2.056,5.092,0.468,6.233c3.352,1.517,6.311-1.721,6.236-4.95
				c-0.074-3.27-2.785-5.224-5.83-5.166c-1.269,0.024-2.641,0.297-3.597,1.181c-1.104,1.018-0.628,2.559,0.521,3.247
				c0.797,0.477,1.51-0.303,1.403-1.079c-0.016-0.114,0.007-0.471,0.014-0.497c-0.075,0.289-0.151,0.131,0.133,0.017
				c0.562-0.227,1.174-0.271,1.771-0.284c1.418-0.032,2.453,0.541,2.91,1.997c0.475,1.513-0.459,3.51-2.189,3.482
				c-0.639-0.01-1.194-0.532-1.497-1.041c-0.477-0.803-0.005-1.476,0.397-2.177C402.828,302.2,402.383,301.488,401.82,301.7
				L401.82,301.7z"/>
		</g>
	</g>
	<g>
		<g>
			<path fill="#654273" d="M410.646,275.743c2.225,0.133,4.748,2.195,6.986,1.398c0.784-0.279,1.207-1.576,0.26-1.992
				c-1.043-0.458-2.33-0.529-3.463-0.674c-1.436-0.185-2.55-0.183-3.924,0.232C409.921,274.884,410.057,275.708,410.646,275.743
				L410.646,275.743z"/>
		</g>
	</g>
	<g>
		<g>
			<path fill="#654273" d="M416.166,276.976c-1.857,2.275,1.426,4.133,3.347,4.357c3.438,0.401,5.217-3.328,4.442-6.245
				c-0.909-3.419-4.641-4.739-7.805-4.014c-1.104,0.253-2.189,1.162-2.208,2.369c-0.023,1.532,1,2.609,2.181,3.435
				c0.594,0.416,1.349-0.392,0.978-0.978c-0.41-0.648-0.825-1.322-1.056-2.057c-0.188-0.606,0.656-0.701,1.069-0.75
				c2.039-0.245,3.974,0.555,4.675,2.593c0.516,1.5-0.327,3.392-1.995,3.493c-1.339,0.082-2.655-0.646-2.884-2.006
				C416.856,276.856,416.368,276.728,416.166,276.976L416.166,276.976z"/>
		</g>
	</g>
	<g>
		<g>
			<path fill="#654273" d="M408.982,243.452c1.441,0.263,2.821-0.333,4.157-0.814c0.752-0.271,1.504-0.542,2.271-0.771
				c0.518-0.155,1.108-0.136,1.575-0.414c0.743-0.442,0.667-1.432,0-1.89c-1.021-0.7-2.772,0.287-3.747,0.687
				c-1.483,0.609-2.973,1.206-4.43,1.874C408.25,242.38,408.385,243.342,408.982,243.452L408.982,243.452z"/>
		</g>
	</g>
	<g>
		<g>
			<path fill="#654273" d="M416.223,240.98c0.574,0,0.574-0.891,0-0.891S415.648,240.98,416.223,240.98L416.223,240.98z"/>
		</g>
	</g>
	<g>
		<g>
			<path fill="#654273" d="M416.031,239.656c-1.088,1.39-0.066,3.116,1.337,3.961c1.44,0.869,3.112,0.414,4.061-0.969
				c2.304-3.356,0.216-6.861-2.669-8.972c-2.11-1.544-7.464-2.11-7.523,1.752c-0.041,2.732,2.998,6.235,5.845,6.125
				c0.774-0.03,1.235-1.198,0.426-1.572c-1.329-0.615-2.517-1.473-3.396-2.66c-0.373-0.504-0.809-1.227-0.705-1.884
				c0.152-0.973,1.724-0.922,2.398-0.779c1.774,0.375,3.266,1.931,4.11,3.455c0.463,0.834,0.44,1.678,0.19,2.579
				c-0.148,0.533-0.5,1.005-0.957,1.307c-0.865,0.57-2.31-1.274-2.236-1.977C416.956,239.591,416.302,239.31,416.031,239.656
				L416.031,239.656z"/>
		</g>
	</g>
	<g>
		<g>
			<path fill="#654273" d="M391.628,217.583c0.956-0.496,1.599-1.219,2.242-2.067c0.621-0.818,1.256-1.685,1.606-2.657
				c0.459-1.277-1.459-2.442-2.331-1.356c-0.59,0.735-0.988,1.601-1.488,2.4c-0.467,0.746-1.034,1.444-1.561,2.148
				C389.371,217.018,390.725,218.052,391.628,217.583L391.628,217.583z"/>
		</g>
	</g>
	<g>
		<g>
			<path fill="#654273" d="M391.893,210.264c1.365,1.304,2.501,4.332,4.931,3.713c2.764-0.704,3.533-4.326,2.082-6.476
				c-1.381-2.045-4.136-2.771-6.486-2.702c-0.981,0.029-2.129,0.491-2.342,1.559c-0.211,1.055,0.584,2.187,1.662,2.256
				c0.277,0.018,0.491-0.198,0.576-0.439c0.081-0.229,0.143-0.433,0.076-0.678c-0.053-0.194,0.285-0.677-0.103-0.183
				c-0.181,0.231-0.075,0.05,0.131,0.026c0.319-0.038,0.646-0.016,0.966,0.003c1.374,0.078,2.831,0.43,3.679,1.605
				c0.792,1.096-0.094,3.571-1.602,2.791c-1.084-0.561-1.971-1.557-2.958-2.268C392.032,209.133,391.486,209.875,391.893,210.264
				L391.893,210.264z"/>
		</g>
	</g>
	<g>
		<g>
			<path fill="#654273" d="M363.403,204.354c0.998-0.533,1.044-2.118,1.14-3.105c0.109-1.128-0.214-2.577-0.518-3.665
				c-0.45-1.607-3.114-1.341-2.977,0.403c0.007,0.085,0.014,0.171,0.021,0.257c0.056,0.716,0.523,1.178,1.237,1.237
				c0.086,0.007,0.172,0.014,0.258,0.021c-0.487-0.371-0.974-0.741-1.461-1.112c0.172,0.854,0.39,1.693,0.494,2.561
				c0.057,0.479,0.171,0.948,0.229,1.427c0.055,0.458-0.072,0.94,0.098,1.375C362.164,204.367,362.785,204.685,363.403,204.354
				L363.403,204.354z"/>
		</g>
	</g>
	<g>
		<g>
			<path fill="#654273" d="M360.203,196.568c0.933,2.7,4.034,2.67,5.852,0.828c2.255-2.286,0.42-5.214-1.831-6.529
				c-2.244-1.31-5.735-1.766-7.647,0.338c-2.346,2.582,0.581,6.733,3.189,7.75c0.747,0.291,1.672-0.61,1.365-1.365
				c-0.594-1.458-2.035-2.417-2.485-3.935c-0.437-1.475,2.597-0.891,3.152-0.729c0.947,0.277,2.686,1.109,2.383,2.338
				c-0.302,1.229-2.442,1.231-3.254,0.747C360.571,195.8,360.059,196.151,360.203,196.568L360.203,196.568z"/>
		</g>
	</g>
	<g>
		<g>
			<path fill="#654273" d="M336.417,205.079c-0.387-0.975-0.901-1.902-1.386-2.831c-0.519-0.994-1.02-2.007-1.813-2.816
				c-1.363-1.39-3.413,0.695-2.121,2.121c1.342,1.482,2.053,4.151,4.254,4.593C335.928,206.262,336.682,205.745,336.417,205.079
				L336.417,205.079z"/>
		</g>
	</g>
	<g>
		<g>
			<path fill="#654273" d="M327.301,199.125c-0.845,2.043,2.229,2.525,3.521,2.331c2.419-0.366,4.213-2.306,3.373-4.814
				c-0.969-2.895-4.732-5.622-7.786-4.471c-3.561,1.343-3.244,6.974,0.248,8.208c0.806,0.285,1.442-0.567,1.291-1.291
				c-0.251-1.201-2.895-4.208-0.183-4.564c1.6-0.21,3.57,1.641,4.064,3.048c0.6,1.708-3.27,2.14-3.398,1.553
				C328.293,198.496,327.5,198.641,327.301,199.125L327.301,199.125z"/>
		</g>
	</g>
	<g>
		<g>
			<path fill="#654273" d="M318.872,216.717c-0.292-1.204-1.405-2.257-2.259-3.092c-0.86-0.84-2.389-1.995-3.676-1.823
				c-1.973,0.265-2.039,2.922,0,3.12c0.144,0.014,0.491,0.152,0.831,0.344c0.512,0.289,0.99,0.649,1.474,0.981
				c0.792,0.544,1.612,1.302,2.563,1.536C318.457,217.944,319.028,217.367,318.872,216.717L318.872,216.717z"/>
		</g>
	</g>
	<g>
		<g>
			<path fill="#654273" d="M308.545,213.433c-0.83,1.321-0.049,2.594,1.543,2.599c1.676,0.005,3.478-1.013,3.952-2.683
				c1.217-4.287-5.187-8.931-8.653-5.786c-2.077,1.884-0.412,4.124,1.535,5.21c0.751,0.419,1.482-0.233,1.331-1.023
				c-0.102-0.531-0.308-0.983-0.538-1.469c-0.115-0.244-0.324-0.468-0.469-0.696c-0.017-0.032-0.034-0.064-0.05-0.096
				c-0.123,0.405-0.043,0.43,0.241,0.073c1.473-1.088,3.769,1.254,3.944,2.622c0.093,0.725-0.367,0.928-0.96,1.282
				c-0.31,0.185-0.645,0.251-0.99,0.343c-0.213,0.057-0.06,0.175-0.035-0.146C309.434,213.186,308.771,213.072,308.545,213.433
				L308.545,213.433z"/>
		</g>
	</g>
	<g>
		<g>
			<path fill="#654273" d="M312.033,235.898c-1.066-1.228-4.457-1.426-6.025-0.775c-0.609,0.253-1.145,0.729-1.11,1.458
				c0.015,0.311,0.063,0.489,0.207,0.764c0.231,0.447,0.802,0.777,1.306,0.749c0.908-0.05,1.83-0.287,2.734-0.397
				c0.538-0.065,1.063-0.166,1.596-0.256c0.217-0.037,1.39-0.208,0.708-0.133C312.172,237.228,312.533,236.474,312.033,235.898
				L312.033,235.898z"/>
		</g>
	</g>
	<g>
		<g>
			<path fill="#654273" d="M302.202,239.085c1.573,3.625,7.525,2.412,6.894-1.705c-0.446-2.906-4.221-5.64-7.002-3.828
				c-0.592,0.385-0.896,1.4-0.247,1.911c0.204,0.16,0.351,0.346,0.518,0.544c0.435,0.518,1.422,0.249,1.549-0.409
				c0.09-0.463,0.101-0.862-0.033-1.319c-0.284,0.499-0.567,0.998-0.85,1.497c0.812-0.205,1.37-0.361,2.147,0.062
				c0.651,0.354,1.169,1.006,1.413,1.701c0.749,2.135-2.881,1.36-3.965,0.996C302.279,238.417,302.083,238.812,302.202,239.085
				L302.202,239.085z"/>
		</g>
	</g>
	<g>
		<g>
			<path fill="#654273" d="M319.644,262.223c-1.4-0.188-2.771,0.936-3.897,1.636c-0.692,0.43-1.355,0.918-2.115,1.228
				c-0.784,0.321-1.326,0.418-1.808,1.179c-0.405,0.64-0.086,1.359,0.463,1.764c1.331,0.979,3.174-0.266,4.333-1.021
				c1.313-0.855,3.036-1.874,3.975-3.127C321.161,263.125,320.36,262.318,319.644,262.223L319.644,262.223z"/>
		</g>
	</g>
	<g>
		<g>
			<path fill="#654273" d="M310.784,270.684c0.667,1.797,2.317,2.705,4.074,1.634c1.728-1.053,2.107-3.403,1.661-5.209
				c-0.444-1.797-1.967-3.608-3.468-4.615c-1.775-1.19-4.419-0.465-5.205,1.557c-0.77,1.983,0.414,4.291,1.873,5.633
				c0.511,0.471,1.446,0.457,1.761-0.227c0.469-1.016-0.55-2.19-1.001-3.061c-0.423-0.817-0.275-2.387,1.008-1.837
				c0.904,0.388,1.536,1.333,2.035,2.135c1.06,1.7,0.726,4.777-1.825,3.289C311.256,269.725,310.588,270.154,310.784,270.684
				L310.784,270.684z"/>
		</g>
	</g>
</g>
<g id="Arrows_and_Labels">
	<g>
		<g>
			<g>
				<path fill="#333333" d="M284.736,429.5c-0.019-0.321-0.007-0.269-0.137-0.585c-0.104-0.254-0.56-0.352-0.616,0
					c-0.497,3.082-1.088,6.732-0.711,9.835c0.064,0.525,0.929,0.77,1.021,0.138c0.454-3.145,0.742-6.819,0.307-9.973
					c-0.156,0.12-0.313,0.24-0.469,0.361c0.074,0.092,0.148,0.184,0.223,0.275C284.394,429.769,284.75,429.719,284.736,429.5
					L284.736,429.5z"/>
			</g>
		</g>
		<g>
			<g>
				<path fill="#333333" d="M284.701,435.078c0.607,0.111,1.225,0.117,1.84,0.121c0.626,0.004,1.413-0.015,1.955-0.349
					c0.276-0.17,0.267-0.677-0.097-0.742c-0.613-0.11-1.24,0.073-1.858,0.13c-0.613,0.057-1.234,0.071-1.84,0.184
					C284.375,434.482,284.375,435.018,284.701,435.078L284.701,435.078z"/>
			</g>
		</g>
		<g>
			<g>
				<path fill="#333333" d="M288.076,423.69c-0.625,3.495-0.423,7.403-0.311,10.95c0.043,1.362-0.25,6.839,1.775,7.078
					c0.3,0.035,0.537-0.326,0.452-0.594c-1.819-5.696-0.451-11.646-1.487-17.435C288.467,423.478,288.115,423.478,288.076,423.69
					L288.076,423.69z"/>
			</g>
		</g>
		<g>
			<g>
				<path fill="#333333" d="M294.763,435.562c0.479-1.993-2.042-2.416-3.079-1.026c-1.354,1.813-0.056,4.201,1.815,4.972
					c1.848,0.762,3.801-0.11,3.957-2.216c0.145-1.961-2.985-4.039-4.65-2.942c-0.367,0.241-0.252,0.886,0.234,0.866
					c1.171-0.047,2.452,0.569,3.017,1.606c0.637,1.169-0.799,1.806-1.693,1.601c-1.015-0.232-1.875-1.115-1.917-2.172
					c-0.046-1.15,1.383-2.074,1.872-0.688C294.391,435.765,294.707,435.797,294.763,435.562L294.763,435.562z"/>
			</g>
		</g>
		<g>
			<g>
				<path fill="#333333" d="M300.466,435.103c0.275-0.383,0.38-0.782,0.448-1.249c0.033-0.225-0.053-0.396-0.271-0.478
					c-1.303-0.485-2.92-0.244-3.351,1.236c-0.082,0.282,0.097,0.548,0.361,0.636c1.669,0.56,3.562,1.152,4.872,2.377
					c0.987,0.924-0.114,1.642-1.095,1.729c-1.07,0.096-2.239-0.364-2.809-1.298c-0.242-0.396-0.757-0.114-0.7,0.295
					c0.356,2.537,5.841,2.972,6.074,0.191c0.104-1.244-1.117-2.071-2.057-2.624c-1.245-0.731-2.646-1.214-4.011-1.667
					c0.121,0.212,0.241,0.424,0.361,0.636c0.284-0.985,1.451-0.816,2.252-0.75c-0.129-0.129-0.258-0.259-0.388-0.388
					c0.049,0.396,0.167,0.769-0.038,1.147C299.989,435.132,300.315,435.312,300.466,435.103L300.466,435.103z"/>
			</g>
		</g>
		<g>
			<g>
				<path fill="#333333" d="M304.46,428.547c0.049-0.121,0.098-0.241,0.147-0.362c0.266-0.506-0.591-0.776-0.67-0.282
					c-0.399,2.51-0.845,5.021-1.184,7.539c-0.159,1.183-0.278,2.996,0.716,3.923c1.649,1.536,6.033,1.841,7.087-0.458
					c0.114-0.249-0.146-0.626-0.422-0.423c-1.134,0.831-2.383,0.624-3.693,0.59c-1.727-0.047-2.419-0.882-2.497-2.573
					c-0.132-2.86,1.033-5.596,0.713-8.5c-0.228,0.062-0.456,0.123-0.683,0.185c0.049,0.121,0.098,0.241,0.147,0.362
					C304.174,428.714,304.408,428.714,304.46,428.547L304.46,428.547z"/>
			</g>
		</g>
		<g>
			<g>
				<path fill="#333333" d="M301.291,433.973c2.181,0.152,4.754,0.395,6.828-0.44c0.288-0.116,0.276-0.583-0.078-0.575
					c-2.232,0.048-4.514,0.412-6.75,0.57C301.004,433.548,301.004,433.952,301.291,433.973L301.291,433.973z"/>
			</g>
		</g>
		<g>
			<g>
				<path fill="#333333" d="M323.771,430.25c0.021,0.55-0.037,1.092-0.175,1.628c-0.169,0.638,0.83,0.8,0.905,0.122
					c0.22-1.977,0.437-7.285-3.062-5.491c-2.501,1.283-3.268,6.07-3.481,8.532c-0.331,3.804,0.947,6.787,4.985,7.492
					c1.289,0.226,7.143-0.505,4.585-2.771c-0.268-0.238-0.608-0.001-0.561,0.326c0.313,2.171-5.071,0.968-5.787,0.625
					c-2.277-1.091-2.185-3.819-2.021-5.937c0.144-1.865,0.716-3.813,1.486-5.509c0.298-0.657,2.125-3.585,2.845-0.957
					c0.319,1.165,0.013,2.497,0.09,3.688c0.301-0.041,0.603-0.082,0.905-0.122c-0.138-0.536-0.196-1.078-0.175-1.628
					C324.305,429.902,323.777,429.902,323.771,430.25L323.771,430.25z"/>
			</g>
		</g>
		<g>
			<g>
				<path fill="#333333" d="M326.479,437.223c1.513,0.324,2.676-1.104,2.002-2.525c-0.975-2.059-3.357,1.031-3.653,2.027
					c-0.557,1.872,1.219,3.213,2.789,3.673c1.48,0.435,4.311,0.306,4.706-1.569c0.052-0.246-0.198-0.467-0.431-0.331
					c-0.901,0.524-1.64,1.014-2.726,1.047c-1.077,0.033-2.234-0.343-2.986-1.131c-0.976-1.024-0.012-2.548,0.934-3.188
					c0.488-0.329,0.622,0.077,0.611,0.503c-0.017,0.642-0.623,0.977-1.186,1.041C326.302,436.797,326.205,437.163,326.479,437.223
					L326.479,437.223z"/>
			</g>
		</g>
		<g>
			<g>
				<path fill="#333333" d="M334.616,430.229c-1.378-0.195-1.947,4.04-2.104,4.811c-0.412,2.026-0.851,4.943,1.571,5.8
					c3.765,1.33,5.553-9.291,5.874-11.405c0.13-0.862-1.167-1.252-1.332-0.367c-0.626,3.358-3.66,9.204,0.988,11.15
					c1.599,0.669,8.224,2.088,7.709-1.363c-0.08-0.531-0.761-0.458-1.007-0.132c-1.281,1.706-4.819,0.919-6.452,0.078
					c-3.161-1.628-0.371-6.908,0.094-9.366c-0.444-0.122-0.888-0.245-1.332-0.367c-0.489,3.178-1.293,6.727-2.984,9.484
					c-0.477,0.777-1.193,1.364-1.894,0.423c-0.456-0.612-0.177-2.05-0.116-2.748c0.055-0.625,0.44-5.226,0.984-5.454
					C334.834,430.68,334.929,430.273,334.616,430.229L334.616,430.229z"/>
			</g>
		</g>
	</g>
	<g>
		<g>
			<path fill="#333333" d="M471.884,254.301c-1.611,1.219-0.065,4.694,0.453,6.078c0.981,2.617,2.261,5.532,4.162,7.623
				c0.281,0.31,0.936,0.272,1.113-0.144c1.371-3.219,2.202-6.407,2.981-9.802c0.532-2.321,1.485-5.26,0.21-7.482
				c-0.178-0.309-0.648-0.167-0.655,0.177c-0.115,5.664-1.748,11.32-3.832,16.562c0.396-0.104,0.79-0.208,1.185-0.313
				c-1.47-1.539-2.516-3.642-3.466-5.523c-0.86-1.702-2.686-4.873-1.836-6.859C472.277,254.434,472.093,254.143,471.884,254.301
				L471.884,254.301z"/>
		</g>
	</g>
	<g>
		<g>
			<path fill="#333333" d="M482.851,263.101c-0.35,0.348-0.323,0.982-0.313,1.448c0.016,0.806,0.116,1.63,0.401,2.387
				c0.261,0.689,0.739,1.376,1.541,1.426c0.815,0.051,1.833-0.761,2.016-1.544c0.043-0.185-0.12-0.367-0.313-0.312
				c-0.396,0.112-0.713,0.417-1.09,0.585c-0.049,0.021-0.327,0.14-0.529,0.097c-0.39-0.083-0.581-0.784-0.682-1.139
				c-0.18-0.631-0.236-1.277-0.365-1.916c-0.074-0.371-0.09-0.757-0.367-1.033C483.067,263.02,482.933,263.02,482.851,263.101
				L482.851,263.101z"/>
		</g>
	</g>
	<g>
		<g>
			<path fill="#333333" d="M483.5,257.992c-0.471,0.022-0.641,0.515-0.679,0.916c-0.052,0.547,0.886,0.56,0.858,0
				c-0.002-0.038-0.041-0.439-0.05-0.436C483.868,258.368,483.745,257.98,483.5,257.992L483.5,257.992z"/>
		</g>
	</g>
	<g>
		<g>
			<path fill="#333333" d="M486.814,263.108c0.907,1.421,1.464,2.915,1.916,4.535c0.347-0.096,0.692-0.191,1.039-0.287
				c-0.419-1.022-0.725-2.034-0.699-3.15c0.016-0.728,0.332-1.239,0.791-1.771c0.643-0.744,1.52-0.14,2.118,0.277
				c0.527,0.367,1.024-0.406,0.649-0.84c-1.328-1.532-3.165-1.009-4.206,0.494c-1.039,1.5-0.433,3.949,0.361,5.406
				c0.288,0.527,1.214,0.16,0.985-0.416c-0.616-1.551-1.277-3.503-2.661-4.542C486.933,262.683,486.704,262.935,486.814,263.108
				L486.814,263.108z"/>
		</g>
	</g>
	<g>
		<g>
			<path fill="#333333" d="M494.612,261.893c-0.293,1.595-0.701,3.527,0.354,4.918c0.648,0.854,1.721,1.3,2.708,0.817
				c1.952-0.955,1.945-5.078,1.961-6.879c-0.424,0-0.848,0-1.271,0c-0.011,2.057-0.108,4.187,1.526,5.683
				c1.307,1.196,3.956,1.403,4.902-0.261c0.144-0.252-0.092-0.589-0.383-0.499c-1.709,0.53-3.647,0.671-4.483-1.315
				c-0.456-1.083-0.298-2.459-0.291-3.607c0.005-0.82-1.264-0.819-1.271,0c-0.013,1.458-0.172,2.922-0.556,4.331
				c-0.191,0.699-0.546,1.849-1.445,1.342c-1.407-0.793-0.806-3.096-0.961-4.423C495.354,261.587,494.701,261.409,494.612,261.893
				L494.612,261.893z"/>
		</g>
	</g>
	<g>
		<g>
			<path fill="#333333" d="M508.386,261.635c1.665-1.753-0.616-2.47-2.258-2.347c-2.097,0.156-2.427,2.52-0.665,3.422
				c0.977,0.5,2.107,0.676,3.112,1.123c0.856,0.381,2.819,1.482,2.597,2.653c-0.331,1.745-6.843,1.062-6.594-0.396
				c0.05-0.295-0.332-0.625-0.568-0.331c-1.186,1.477,0.807,2.311,2.018,2.604c1.877,0.454,4.436,0.599,5.902-0.896
				c1.459-1.488-0.759-3.401-1.893-4.148c-0.878-0.578-1.916-0.929-2.916-1.226c-0.485-0.144-2.026-0.435-1.646-1.315
				c0.421-0.975,3.584-0.626,2.639,0.587C507.968,261.554,508.211,261.819,508.386,261.635L508.386,261.635z"/>
		</g>
	</g>
	<g>
		<g>
			<path fill="#333333" d="M222.023,346.627c-0.671,2.608-0.608,5.388-0.5,8.064c0.04,0.993,0.092,1.984,0.086,2.979
				c-0.002,0.385-0.122,0.782-0.107,1.16c0.021,0.55-0.078,0.243,0.147,0.073c-0.19,0.145-0.268,0.486,0,0.613
				c1.331,0.632,1.224-1.659,1.218-2.334c-0.033-3.501-0.594-6.967-0.222-10.473C222.683,346.351,222.11,346.288,222.023,346.627
				L222.023,346.627z"/>
		</g>
	</g>
	<g>
		<g>
			<path fill="#333333" d="M213.829,345.23c-0.25-0.024-0.5-0.049-0.75-0.074c0.027,0.199,0.054,0.398,0.081,0.599
				c4.849-1.239,10.515-2.548,14.564,1.279c3.96,3.742-3.04,9.094-6.709,6.609c-0.375-0.254-0.682,0.275-0.445,0.577
				c2.939,3.737,9.861-1.285,9.399-5.25c-0.337-2.894-3.882-4.659-6.363-5.23c-3.493-0.804-7.315,0.317-10.608,1.427
				c-0.308,0.104-0.277,0.634,0.081,0.599c0.25-0.025,0.5-0.05,0.75-0.074C214.125,345.662,214.125,345.26,213.829,345.23
				L213.829,345.23z"/>
		</g>
	</g>
	<g>
		<g>
			<path fill="#333333" d="M230.617,343.711c0.151,4.958,2.734,9.574,1.367,14.586c-0.179,0.656,0.844,1.13,1.126,0.475
				c0.928-2.149,2.067-4.133,3.67-5.857c-0.335-0.044-0.67-0.087-1.005-0.13c1.168,1.847,0.417,3.991,0.167,5.992
				c-0.223,1.785-0.029,3.151,0.845,4.732c1.491,2.699,4.982,3.41,7.791,3.323c0.807-0.025,0.794-1.188,0-1.242
				c-3.774-0.258-7.618-1.652-7.36-6.161c0.143-2.502,1.107-4.988-0.337-7.291c-0.213-0.339-0.715-0.439-1.005-0.13
				c-1.707,1.824-3.007,3.954-3.892,6.289c0.396,0.109,0.792,0.219,1.188,0.328c1.236-5.233-1.347-9.904-2.141-14.97
				C230.994,343.417,230.609,343.477,230.617,343.711L230.617,343.711z"/>
		</g>
	</g>
	<g>
		<g>
			<path fill="#333333" d="M244.143,352.22c-1.975-0.357-3.537-0.261-4.749,1.488c-0.68,0.981-0.796,2.228,0.002,3.154
				c0.676,0.784,1.955,0.848,2.853,0.503c1.307-0.503,1.757-1.857,1.652-3.154c-0.06-0.734-1.112-0.747-1.15,0
				c-0.078,1.541,0.614,3.076,1.834,4.023c1.09,0.848,2.637,0.679,3.237-0.63c0.124-0.27-0.123-0.508-0.39-0.39
				c-1.009,0.446-1.678,0.624-2.542-0.212c-0.729-0.705-1.043-1.809-0.988-2.792c-0.383,0-0.767,0-1.15,0
				c0.106,1.383-0.891,2.801-2.373,1.961c-0.729-0.414-0.311-1.363-0.007-1.893c0.854-1.482,2.315-1.349,3.771-1.577
				C244.385,352.664,244.38,352.263,244.143,352.22L244.143,352.22z"/>
		</g>
	</g>
	<g>
		<g>
			<path fill="#333333" d="M250.737,352.551c-3.065-2.506-6.155,3.271-2.84,4.569c2.686,1.053,5.925-1.175,3.965-3.972
				c-0.372-0.531-1.081-0.301-1.155,0.313c-0.434,3.585,5.014,6.022,7.491,7.584c3.671,2.315,7.65,4.068,11.171,6.64
				c0.947,0.692,3.993,3.015,1.596,3.773c-2.058,0.652-4.758-0.25-6.745-0.799c-3.582-0.99-13.207-3.987-8.398-9.452
				c0.251-0.285-0.073-0.769-0.421-0.546c-2.478,1.583-2.479,4.335-0.947,6.662c1.055,1.603,2.996,2.335,4.686,3.034
				c2.627,1.087,5.391,1.943,8.197,2.411c1.732,0.288,4.152,0.569,5.48-0.866c4.483-4.847-20.961-13.393-20.871-18.441
				c-0.385,0.104-0.77,0.208-1.155,0.313c0.958,1.314,0.231,2.242-1.248,2.419c-3.074,0.368-1.958-4.375,0.973-3.263
				C250.725,353.009,250.91,352.692,250.737,352.551L250.737,352.551z"/>
		</g>
	</g>
	<g>
		<g>
			<path fill="#333333" d="M258.936,353.461c0.167-1.985-2.641-1.199-3.037,0.196c-0.59,2.08,1.715,2.981,3.353,3.292
				c1.258,0.239,4.228-0.008,3.684-2.065c-0.243-0.918-1.085-1.496-1.85-1.975c-0.915-0.572-1.949-1.248-2.957-1.637
				c-0.146-0.056-0.273,0.108-0.24,0.24c0.23,0.918,1.534,1.496,2.258,1.944c0.716,0.443,2.933,1.884,1.125,2.504
				c-1.133,0.389-2.652-0.056-3.67-0.58c-1.936-0.996,0.285-3.308,1.132-1.864C258.791,353.615,258.927,353.565,258.936,353.461
				L258.936,353.461z"/>
		</g>
	</g>
	<g>
		<g>
			<path fill="#333333" d="M266.728,352.419c-0.32-2.333-4.4-1.614-3.051,0.418c0.967,1.456,3.008,1.782,4.032,3.253
				c0.829,1.189-1.568,1.269-2.217,1.181c-1.288-0.175-2.353-1.077-3.608-1.267c-0.158-0.024-0.373,0.146-0.243,0.315
				c1,1.3,3.465,2.076,5.05,1.808c1.269-0.214,2.551-0.878,1.851-2.32c-0.725-1.492-2.567-2.057-3.774-3.014
				c-0.583-0.462-0.781-1.023,0.099-1.131c0.665-0.082,1.306,0.266,1.575,0.878C266.52,352.718,266.749,352.577,266.728,352.419
				L266.728,352.419z"/>
		</g>
	</g>
	<g>
		<g>
			<path fill="#333333" d="M271.412,353.047c0.117-0.134,0.233-0.268,0.347-0.404c0.154-0.183,0.044-0.41-0.182-0.439
				c-3.59-0.45-3.247,4.486-0.333,5.454c2.675,0.888,5.987-1.904,3.937-4.52c-1.374-1.754-5.33-2.705-4.461,0.76
				c0.725,2.895,5.944,0.815,7.022-0.694c-0.292-0.038-0.585-0.076-0.878-0.114c0.551,1.471,0.506,2.867,1.492,4.147
				c0.262,0.34,0.882,0.383,0.997-0.13c0.291-1.292,0.624-2.552,1.627-3.492c-0.324-0.135-0.648-0.269-0.973-0.403
				c0.534,4.311,4.101,2.469,5.127-0.597c-0.378-0.051-0.757-0.103-1.136-0.153c0.004,2.713,0.384,4.642,3.175,5.556
				c1.105,0.361,4.376,0.57,3.761-1.404c-0.116-0.371-0.586-0.334-0.716,0c-0.447,1.151-3.134,0.188-3.759-0.108
				c-1.479-0.702-1.3-2.702-1.305-4.043c-0.002-0.671-0.933-0.764-1.136-0.153c-0.133,0.487-0.34,0.94-0.62,1.356
				c-0.564,1.093-1.315,0.942-2.252-0.453c-0.061-0.475-0.582-0.778-0.973-0.403c-1.128,1.083-1.554,2.511-1.873,4.008
				c0.304-0.08,0.608-0.16,0.912-0.24c-0.88-1.094-0.918-2.498-1.422-3.742c-0.16-0.395-0.623-0.473-0.878-0.114
				c-0.605,0.85-1.639,1.193-2.604,1.446c-0.646,0.169-1.296,0.164-1.944,0.025c0.104-0.591,0.208-1.182,0.312-1.772
				c0.468,0.149,0.884,0.388,1.25,0.717c1.958,1.585,0.428,3.675-1.643,3.791c-0.906,0.051-1.802-0.391-2.349-1.104
				c-0.908-1.185,1.462-3.759,1.276-2.894C271.187,353.039,271.327,353.145,271.412,353.047L271.412,353.047z"/>
		</g>
	</g>
	<g>
		<g>
			<path fill="#333333" d="M291.077,354.734c1.547,0.071,3.232-0.746,3.526-2.361c0.175-0.959-0.498-1.88-1.489-1.922
				c-2.923-0.123-5.23,3.065-3.183,5.525c1.789,2.149,6.234,2.012,8.733,1.677c1.245-0.168,2.759-0.333,3.735-1.204
				c0.882-0.787-0.218-1.681-0.99-1.79c-0.316-0.044-0.509,0.268-0.304,0.522c0.548,0.683,0.099,0.632-0.663,0.867
				c-0.63,0.195-1.292,0.301-1.941,0.407c-1.119,0.184-2.216,0.167-3.346,0.103c-1.579-0.09-4.18-0.328-4.883-2.036
				c-0.466-1.133,0.398-2.216,1.297-2.751c0.336-0.2,3.731-1,1.675,1.42c-0.517,0.608-1.506,0.83-2.24,1.006
				C290.693,354.271,290.777,354.721,291.077,354.734L291.077,354.734z"/>
		</g>
	</g>
	<g>
		<g>
			<path fill="#333333" d="M470.319,260.248c-2.396-0.56-4.509-2.556-6.727-3.602c-2.191-1.034-4.467-1.944-6.749-2.751
				c-4.429-1.566-9.263-2.327-13.943-2.586c-4.78-0.264-9.688-0.628-14.452-0.037c-3.731,0.464-7.606,0.707-11.016,2.436
				c0.287,0.287,0.573,0.573,0.859,0.859c0.828-1.504,2.105-2.532,3.323-3.702c0.42-0.403-0.13-1.134-0.626-0.811
				c-2.502,1.63-4.406,3.849-6.351,6.084c-0.314,0.361-0.082,0.816,0.361,0.874c2.811,0.362,5.524-0.468,8.239,0.684
				c0.087-0.321,0.174-0.642,0.261-0.962c-2.563-0.248-3.722-2.971-2.477-5.074c0.188-0.318-0.236-0.622-0.497-0.383
				c-2.646,2.417-0.038,6.203,2.974,6.49c0.496,0.047,0.73-0.764,0.261-0.962c-2.914-1.233-5.729-0.428-8.761-0.816
				c0.12,0.292,0.241,0.583,0.361,0.874c1.884-2.17,3.705-4.349,6.149-5.916c-0.209-0.27-0.417-0.541-0.626-0.811
				c-1.298,1.228-2.707,2.276-3.677,3.798c-0.364,0.57,0.328,1.115,0.859,0.859c3.487-1.682,7.445-1.821,11.22-2.333
				c4.708-0.638,9.741-0.074,14.463,0.185c4.896,0.269,9.825,1.363,14.432,3.015c2.48,0.89,4.907,1.95,7.277,3.098
				c1.622,0.786,2.963,1.818,4.791,2.003C470.547,260.792,470.604,260.314,470.319,260.248L470.319,260.248z"/>
		</g>
	</g>
	<g>
		<g>
			<path fill="#333333" d="M265.884,258.021c-1.183-0.734-3.049,1.46-3.707,2.147c-2.163,2.26-4.085,4.804-5.758,7.444
				c-2.205,3.481-3.22,8.039-3.774,12.058c-0.722,5.232,0.633,9.765,2.95,14.39c2.155,4.304,4.804,8.36,8.376,11.622
				c3.601,3.288,8.182,5.175,11.755,8.555c3.85,3.643,6.4,8.796,7.032,14.055c0.654,5.443-2.467,9.938-6.066,13.651
				c-0.708,0.73,0.397,1.838,1.115,1.115c5.596-5.638,12.988-7.145,20.647-5.766c7.536,1.356,13.453,5.708,20.223,8.891
				c3.476,1.634,7.091,2.97,10.653,4.399c4.059,1.629,7.829,3.361,12.191,4.035c3.666,0.565,7.4,0.421,11.083,0.144
				c3.428-0.259,7.216-0.391,10.28-2.103c0.428-0.239,0.499-0.856,0.154-1.197c-0.168-0.165-0.335-0.331-0.503-0.497
				c-0.696-0.688-1.759,0.376-1.071,1.072c0.166,0.167,0.331,0.335,0.497,0.503c0.052-0.399,0.103-0.798,0.154-1.197
				c-3.51,1.905-8.187,1.823-12.089,2.033c-4.407,0.238-8.763-0.095-13.003-1.362c-4.117-1.23-8.141-3.261-12.136-4.851
				c-4.219-1.679-8.191-3.608-12.089-5.928c-11.097-6.605-26.066-9.084-36.105,0.708c0.372,0.372,0.744,0.743,1.115,1.115
				c2.789-2.81,5.155-5.955,6.195-9.827c1.063-3.962,0.022-8.309-1.582-11.971c-1.636-3.737-4.091-6.828-7.196-9.456
				c-3.585-3.035-7.956-4.847-11.39-8.081c-3.428-3.228-5.862-7.436-7.927-11.62c-2.948-5.972-2.727-11.933-0.891-18.209
				c0.982-3.359,2.301-5.989,4.312-8.807c0.575-0.806,4.851-7.376,6.288-6.607C265.918,258.641,266.175,258.202,265.884,258.021
				L265.884,258.021z"/>
		</g>
	</g>
</g>
</svg>
